<?xml version="1.0" standalone="no"?>
<!DOCTYPE svg PUBLIC "-//W3C//DTD SVG 20010904//EN"
 "http://www.w3.org/TR/2001/REC-SVG-20010904/DTD/svg10.dtd">
<svg version="1.0" xmlns="http://www.w3.org/2000/svg"
 width="1820.000000pt" height="204.000000pt" viewBox="0 0 1820.000000 204.000000"
 preserveAspectRatio="xMidYMid meet">

<g transform="translate(0.000000,204.000000) scale(0.100000,-0.100000)"
fill="#000000" stroke="none">
<path d="M410 1170 l0 -490 80 0 80 0 2 375 3 376 229 -278 c125 -153 232
-279 236 -281 4 -1 110 123 236 277 126 154 232 280 237 280 4 1 7 -168 7
-374 l0 -375 80 0 80 0 0 490 0 490 -89 0 -88 0 -223 -275 c-122 -151 -226
-277 -230 -280 -5 -3 -111 121 -236 275 l-227 280 -88 0 -89 0 0 -490z"/>
<path d="M2165 1455 c-74 -17 -175 -53 -194 -70 -11 -11 -9 -21 14 -64 l28
-50 50 25 c100 51 252 67 362 39 114 -30 175 -107 175 -223 l0 -64 -46 41
c-82 72 -213 105 -358 89 -168 -18 -273 -88 -303 -202 -51 -196 154 -343 437
-315 88 10 169 42 224 90 l45 40 6 -28 c18 -82 20 -83 107 -83 78 0 79 0 72
23 -20 61 -24 107 -24 278 0 158 -3 197 -20 251 -35 113 -121 187 -256 222
-75 19 -234 20 -319 1z m318 -418 c54 -27 127 -95 127 -119 0 -6 -22 -33 -50
-59 -69 -67 -153 -93 -288 -87 -151 6 -232 57 -232 146 0 105 91 154 276 149
97 -3 118 -7 167 -30z"/>
<path d="M5154 1452 c-191 -57 -294 -193 -294 -390 0 -233 140 -373 403 -402
172 -20 342 19 455 103 l33 25 -45 48 c-39 43 -47 47 -63 37 -108 -73 -170
-93 -294 -93 -99 0 -175 20 -234 60 -43 30 -88 102 -98 158 l-6 32 386 0 386
0 -6 63 c-17 179 -101 294 -254 349 -82 30 -282 35 -369 10z m322 -131 c27
-12 62 -34 78 -49 28 -26 65 -94 66 -119 0 -10 -67 -13 -301 -13 l-300 0 7 23
c27 87 99 151 201 177 62 15 193 5 249 -19z"/>
<path d="M6233 1456 c-183 -45 -298 -178 -311 -362 -14 -210 99 -365 308 -419
85 -23 261 -23 353 -2 68 17 162 60 207 96 l25 20 -47 48 -47 47 -29 -21 c-85
-63 -179 -87 -313 -81 -107 5 -172 28 -228 81 -38 37 -70 100 -71 140 l0 27
380 0 380 0 0 48 c0 63 -30 167 -62 218 -49 77 -129 129 -243 160 -62 17 -232
17 -302 0z m302 -135 c60 -26 100 -63 126 -113 37 -72 53 -68 -280 -68 l-299
0 11 35 c22 74 103 142 194 165 65 16 192 6 248 -19z"/>
<path d="M2953 1278 c46 -90 135 -261 196 -380 l112 -218 84 0 84 0 137 268
c75 147 163 318 196 380 l59 112 -86 0 -85 0 -151 -302 -152 -303 -151 303
-151 302 -88 0 -88 0 84 -162z"/>
<path d="M3930 1380 l0 -60 276 0 c165 0 274 -4 272 -9 -1 -5 -130 -125 -285
-266 l-283 -257 0 -54 0 -54 410 0 410 0 0 65 0 65 -296 2 -297 3 292 264 291
263 0 49 0 49 -395 0 -395 0 0 -60z"/>
<path d="M8890 915 c0 -150 4 -235 10 -235 6 0 10 85 10 235 0 150 -4 235 -10
235 -6 0 -10 -85 -10 -235z"/>
<path d="M11930 1051 l0 -98 -35 33 c-88 83 -256 60 -305 -41 -41 -84 -15
-202 53 -244 74 -46 187 -37 252 20 l35 31 0 -36 c0 -25 4 -36 15 -36 13 0 15
33 15 235 0 202 -2 235 -15 235 -12 0 -15 -18 -15 -99z m-93 -52 c15 -5 43
-24 61 -42 30 -29 32 -35 32 -103 0 -61 -3 -75 -24 -97 -38 -41 -83 -59 -147
-59 -105 0 -160 54 -160 156 0 67 22 111 71 136 39 21 123 26 167 9z"/>
<path d="M12580 915 c0 -202 2 -235 15 -235 11 0 15 13 15 54 0 53 0 54 55 95
30 22 58 41 62 41 5 0 46 -43 91 -95 46 -52 90 -95 98 -95 20 0 17 4 -81 116
l-84 96 81 64 c52 41 74 64 62 64 -10 0 -77 -46 -149 -102 l-130 -100 -3 166
c-2 138 -5 166 -17 166 -13 0 -15 -34 -15 -235z"/>
<path d="M13770 915 c0 -202 2 -235 15 -235 13 0 15 33 15 235 0 202 -2 235
-15 235 -13 0 -15 -33 -15 -235z"/>
<path d="M17070 915 c0 -150 4 -235 10 -235 6 0 10 22 10 50 0 49 1 51 58 95
31 25 60 45 64 45 3 0 43 -42 89 -92 46 -51 92 -95 102 -96 14 -3 -10 31 -71
101 -51 57 -92 107 -92 109 0 3 34 31 75 63 41 31 75 59 75 61 0 18 -47 -11
-157 -96 -70 -55 -131 -100 -135 -100 -5 0 -8 74 -8 165 0 103 -4 165 -10 165
-6 0 -10 -85 -10 -235z"/>
<path d="M8705 1120 c-4 -7 -3 -16 3 -22 14 -14 45 -2 40 15 -6 16 -34 21 -43
7z"/>
<path d="M13038 1068 c-3 -42 -4 -43 -40 -46 -51 -4 -49 -22 2 -22 l40 0 0
-139 0 -139 31 -26 c20 -17 42 -26 65 -26 38 0 94 24 94 40 0 13 -7 13 -32 -1
-34 -18 -88 -13 -112 10 -19 19 -21 35 -24 151 l-4 130 86 0 c110 0 113 18 4
22 l-83 3 -3 43 c-2 23 -7 42 -12 42 -5 0 -10 -19 -12 -42z"/>
<path d="M7883 1031 c-38 -10 -81 -36 -105 -65 -17 -21 -17 -20 -18 17 0 26
-4 37 -15 37 -13 0 -15 -26 -15 -170 0 -144 2 -170 15 -170 12 0 15 20 15 116
0 101 3 120 21 145 50 70 179 93 238 43 40 -33 51 -77 51 -201 0 -62 4 -103
10 -103 6 0 10 49 10 128 0 137 -11 172 -63 206 -29 20 -101 28 -144 17z"/>
<path d="M8311 1025 c-58 -16 -84 -32 -76 -46 3 -4 24 1 48 11 52 24 155 26
197 5 35 -18 55 -53 65 -112 4 -29 3 -43 -4 -43 -7 0 -14 6 -17 14 -3 8 -29
24 -57 36 -64 28 -159 23 -213 -11 -42 -26 -54 -47 -54 -94 0 -66 81 -115 187
-115 42 0 111 28 132 53 19 24 29 21 33 -10 2 -17 10 -29 20 -31 15 -3 16 1 7
30 -5 18 -9 73 -9 123 0 69 -4 99 -18 125 -36 65 -139 93 -241 65z m169 -160
c29 -15 70 -60 70 -77 0 -6 -15 -25 -33 -43 -58 -58 -180 -68 -250 -21 -41 27
-50 91 -18 120 50 46 163 56 231 21z"/>
<path d="M9175 1031 c-84 -22 -129 -69 -141 -146 -13 -91 41 -181 121 -204 83
-23 212 -3 249 38 25 28 2 36 -31 11 -41 -29 -137 -45 -190 -31 -54 15 -99 53
-113 97 -21 64 -21 64 180 64 171 0 180 1 180 19 0 50 -40 110 -92 137 -33 17
-123 26 -163 15z m151 -37 c34 -17 74 -69 74 -98 0 -14 -19 -16 -171 -16
l-170 0 6 23 c11 37 40 71 76 89 43 23 139 24 185 2z"/>
<path d="M9694 1031 c-38 -10 -104 -49 -104 -62 0 -5 -4 -9 -10 -9 -5 0 -10
14 -10 30 0 20 -5 30 -15 30 -13 0 -15 -33 -15 -235 0 -202 2 -235 15 -235 12
0 15 18 15 100 l0 101 38 -29 c72 -57 158 -67 232 -29 24 12 52 33 62 47 40
54 39 173 -2 229 -36 51 -134 80 -206 62z m153 -49 c42 -30 68 -97 59 -156
-13 -84 -70 -128 -166 -128 -64 0 -90 10 -137 55 -31 29 -33 35 -33 98 0 59 4
72 27 100 39 46 77 60 153 56 49 -2 74 -8 97 -25z"/>
<path d="M10165 1036 c-5 -3 -26 -7 -46 -10 -48 -8 -89 -47 -89 -84 0 -56 49
-80 195 -97 108 -13 152 -45 125 -95 -37 -70 -209 -76 -293 -10 -29 23 -46 11
-19 -12 45 -40 87 -53 172 -53 98 0 145 20 166 71 27 66 -25 107 -161 124
-124 17 -155 31 -155 69 0 21 7 35 23 46 56 37 181 35 235 -4 27 -19 42 -19
42 0 0 23 -160 68 -195 55z"/>
<path d="M11015 1031 c-84 -22 -129 -69 -141 -146 -13 -91 41 -181 121 -204
83 -23 212 -3 249 38 25 28 2 36 -31 11 -41 -29 -137 -45 -190 -31 -54 15 -99
53 -113 97 -21 64 -21 64 180 64 171 0 180 1 180 19 0 50 -40 110 -92 137 -33
17 -123 26 -163 15z m151 -37 c34 -17 74 -69 74 -98 0 -14 -19 -16 -171 -16
l-170 0 6 23 c11 37 40 71 76 89 43 23 139 24 185 2z"/>
<path d="M12181 1025 c-58 -16 -84 -32 -76 -46 3 -4 24 1 48 11 52 24 155 26
197 5 35 -18 55 -53 65 -112 4 -29 3 -43 -4 -43 -7 0 -14 6 -17 14 -3 8 -29
24 -57 36 -64 28 -159 23 -213 -11 -42 -26 -54 -47 -54 -94 0 -66 81 -115 187
-115 42 0 111 28 132 53 19 24 29 21 33 -10 2 -17 10 -29 20 -31 15 -3 16 1 7
30 -5 18 -9 73 -9 123 0 69 -4 99 -18 125 -36 65 -139 93 -241 65z m169 -160
c29 -15 70 -60 70 -77 0 -6 -15 -25 -33 -43 -58 -58 -180 -68 -250 -21 -41 27
-50 91 -18 120 50 46 163 56 231 21z"/>
<path d="M14055 1031 c-84 -22 -129 -69 -141 -146 -13 -91 41 -181 121 -204
83 -23 212 -3 249 38 25 28 2 36 -31 11 -41 -29 -137 -45 -190 -31 -54 15 -99
53 -113 97 -21 64 -21 64 180 64 171 0 180 1 180 19 0 50 -40 110 -92 137 -33
17 -123 26 -163 15z m151 -37 c34 -17 74 -69 74 -98 0 -14 -19 -16 -171 -16
l-170 0 6 23 c11 37 40 71 76 89 43 23 139 24 185 2z"/>
<path d="M14785 1031 c-40 -10 -66 -25 -89 -50 -26 -29 -36 -26 -36 9 0 20 -5
30 -15 30 -13 0 -15 -26 -15 -170 0 -144 2 -170 15 -170 12 0 15 19 15 113 0
94 3 117 20 141 30 47 87 76 148 76 111 0 142 -48 142 -220 0 -91 3 -110 15
-110 12 0 15 17 15 98 0 53 -5 117 -11 142 -21 92 -102 135 -204 111z"/>
<path d="M15245 1034 c-54 -13 -105 -37 -105 -49 0 -11 9 -10 43 5 59 27 161
27 205 0 36 -22 62 -72 62 -120 0 -36 -2 -37 -35 -6 -74 68 -252 55 -298 -23
-47 -79 12 -154 133 -168 61 -7 131 11 165 43 15 13 27 24 29 24 2 0 6 -13 10
-30 3 -16 11 -30 19 -30 10 0 12 17 10 68 -9 191 -23 236 -82 266 -31 17 -123
28 -156 20z m98 -155 c44 -12 107 -64 107 -88 0 -19 -42 -62 -80 -82 -69 -35
-215 -3 -234 52 -30 87 84 152 207 118z"/>
<path d="M16715 1031 c-40 -10 -66 -25 -89 -50 -26 -29 -36 -26 -36 9 0 20 -5
30 -15 30 -13 0 -15 -26 -15 -170 0 -144 2 -170 15 -170 12 0 15 19 15 113 0
94 3 117 20 141 30 47 87 76 148 76 111 0 142 -48 142 -220 0 -91 3 -110 15
-110 12 0 15 17 15 98 0 53 -5 117 -11 142 -21 92 -102 135 -204 111z"/>
<path d="M15957 1016 c-39 -14 -67 -33 -80 -53 -15 -24 -27 -13 -27 22 0 24
-5 35 -15 35 -13 0 -15 -26 -15 -170 0 -144 2 -170 15 -170 12 0 15 18 15 106
0 119 9 144 66 184 20 13 51 26 71 29 20 3 38 12 41 19 5 16 -23 15 -71 -2z"/>
<path d="M8710 817 c0 -230 -4 -247 -65 -247 -44 0 -54 -16 -15 -25 37 -8 80
12 97 45 9 18 13 84 13 228 0 173 -2 202 -15 202 -13 0 -15 -29 -15 -203z"/>
<path d="M10460 1010 c0 -6 56 -10 148 -10 l147 -1 -152 -149 c-84 -82 -153
-154 -153 -160 0 -6 63 -10 180 -10 153 0 180 2 180 15 0 13 -24 15 -157 15
l-158 1 153 147 c84 81 153 150 152 155 0 11 -340 9 -340 -3z"/>
<path d="M13281 999 c30 -46 159 -268 165 -283 3 -8 -13 -47 -37 -86 -38 -65
-46 -91 -21 -76 11 6 272 448 272 459 0 4 -6 7 -12 7 -7 0 -49 -63 -93 -140
-44 -77 -82 -140 -85 -139 -3 0 -41 61 -85 137 -52 89 -87 138 -99 140 -18 4
-19 3 -5 -19z"/>
<path d="M16081 999 c30 -46 159 -268 165 -283 3 -8 -13 -47 -37 -86 -38 -65
-46 -91 -21 -76 11 6 272 448 272 459 0 4 -6 7 -12 7 -7 0 -49 -63 -93 -140
-44 -77 -82 -140 -85 -139 -3 0 -41 61 -85 137 -52 89 -87 138 -99 140 -18 4
-19 3 -5 -19z"/>
<path d="M17500 908 c1 -167 33 -224 133 -235 57 -7 120 12 161 47 18 17 36
30 40 30 3 0 6 -16 6 -35 0 -19 5 -35 10 -35 6 0 10 63 10 170 0 107 -4 170
-10 170 -6 0 -10 -42 -10 -106 0 -88 -3 -112 -20 -138 -28 -47 -89 -77 -154
-77 -111 0 -136 37 -136 204 0 97 -3 117 -15 117 -12 0 -15 -19 -15 -112z"/>
</g>
</svg>
